<svg width="98" height="17" fill="none" xmlns="http://www.w3.org/2000/svg"><path d="M8.4 1a1 1 0 0 1 1 1v1.2a1 1 0 0 1-1 1H7c-.552 0-.8.648-.8 1.2v2h1.4a1 1 0 0 1 1 1v1.2a1 1 0 0 1-1 1H6.2V16a1 1 0 0 1-1 1H4a1 1 0 0 1-1-1v-5.4H1.6a1 1 0 0 1-1-1V8.4a1 1 0 0 1 1-1H3V4.2A3.2 3.2 0 0 1 6.2 1h2.2z" fill="#fff"/><mask id="a" style="mask-type:luminance" maskUnits="userSpaceOnUse" x="0" y="1" width="10" height="16"><path d="M8.4 1a1 1 0 0 1 1 1v1.2a1 1 0 0 1-1 1H7c-.552 0-.8.648-.8 1.2v2h1.4a1 1 0 0 1 1 1v1.2a1 1 0 0 1-1 1H6.2V16a1 1 0 0 1-1 1H4a1 1 0 0 1-1-1v-5.4H1.6a1 1 0 0 1-1-1V8.4a1 1 0 0 1 1-1H3V4.2A3.2 3.2 0 0 1 6.2 1h2.2z" fill="#fff"/></mask><path fill-rule="evenodd" clip-rule="evenodd" d="M47.211 1.115c1.296-.255 2.46-.07 3.441.403.054.026.105.052.155.078l.961-.389c.99-.4 2.036.437 1.862 1.49.471.518.546 1.383-.091 1.952l-.986.882c.013 1.084-.136 2.056-.593 3.14-.813 1.93-1.98 3.382-3.408 4.393a8.808 8.808 0 0 1-3.177 1.41c-.703.159-1.3.208-1.739.197a8.864 8.864 0 0 1-3.676-.75c-.655-.287-1.136-.584-1.426-.807-1.046-.808-.45-2.482.871-2.449.254.007.491.003.713-.01-.42-.498-.644-1-.734-1.413a1.368 1.368 0 0 1-.027-.422 3.956 3.956 0 0 1-.244-.328 3.743 3.743 0 0 1-.648-2.328l.006-.076.004-.035c.024-.204.09-.389.186-.548-.283-.902-.22-1.809.048-2.663.086-.278.178-.495.252-.64a1.367 1.367 0 0 1 2.257-.27c.997 1.166 1.982 1.86 2.922 2.195.116.042.228.077.335.106.3-1.888 1.542-3.017 2.736-3.118zM45.81 5.833s-2.473.574-5.231-2.651c0 0-1.075 2.114.788 3.404 0 0-.609.107-1.11-.25 0 0-.216 1.826 2.006 2.543H41.08s.323 1.469 2.401 1.791c0 0-.86 1.147-3.655 1.075 0 0 1.577 1.218 3.978 1.182 0 0 4.442.215 6.556-4.8.52-1.235.466-2.401.43-2.975l1.362-1.218-1.362.251s.932-.68 1.04-1.325l-1.505.609s-1.13-1.022-3.046-.61c0 0-1.756.359-1.47 2.974z" fill="#fff"/><mask id="b" style="mask-type:luminance" maskUnits="userSpaceOnUse" x="38" y="1" width="16" height="14"><path fill-rule="evenodd" clip-rule="evenodd" d="M47.211 1.115c1.296-.255 2.46-.07 3.441.403.054.026.105.052.155.078l.961-.389c.99-.4 2.036.437 1.862 1.49.471.518.546 1.383-.091 1.952l-.986.882c.013 1.084-.136 2.056-.593 3.14-.813 1.93-1.98 3.382-3.408 4.393a8.808 8.808 0 0 1-3.177 1.41c-.703.159-1.3.208-1.739.197a8.864 8.864 0 0 1-3.676-.75c-.655-.287-1.136-.584-1.426-.807-1.046-.808-.45-2.482.871-2.449.254.007.491.003.713-.01-.42-.498-.644-1-.734-1.413a1.368 1.368 0 0 1-.027-.422 3.956 3.956 0 0 1-.244-.328 3.743 3.743 0 0 1-.648-2.328l.006-.076.004-.035c.024-.204.09-.389.186-.548-.283-.902-.22-1.809.048-2.663.086-.278.178-.495.252-.64a1.367 1.367 0 0 1 2.257-.27c.997 1.166 1.982 1.86 2.922 2.195.116.042.228.077.335.106.3-1.888 1.542-3.017 2.736-3.118zM45.81 5.833s-2.473.574-5.231-2.651c0 0-1.075 2.114.788 3.404 0 0-.609.107-1.11-.25 0 0-.216 1.826 2.006 2.543H41.08s.323 1.469 2.401 1.791c0 0-.86 1.147-3.655 1.075 0 0 1.577 1.218 3.978 1.182 0 0 4.442.215 6.556-4.8.52-1.235.466-2.401.43-2.975l1.362-1.218-1.362.251s.932-.68 1.04-1.325l-1.505.609s-1.13-1.022-3.046-.61c0 0-1.756.359-1.47 2.974z" fill="#fff"/></mask><path fill-rule="evenodd" clip-rule="evenodd" d="M96.71 1.995C95.87 1.124 94.677.672 93.323.672h-6.646C83.871.672 82 2.543 82 5.35v6.613c0 1.387.452 2.58 1.355 3.451.87.839 2.032 1.258 3.355 1.258h6.58c1.387 0 2.549-.451 3.387-1.258.871-.838 1.323-2.032 1.323-3.42V5.35c0-1.355-.452-2.516-1.29-3.355zM94.29 5.35a.935.935 0 1 0 0-1.871.935.935 0 0 0 0 1.87zM90 4.51a4.137 4.137 0 0 0-4.129 4.13A4.116 4.116 0 0 0 90 12.768c2.29 0 4.129-1.87 4.129-4.129 0-2.258-1.87-4.129-4.129-4.129zm0 6.774a2.657 2.657 0 0 1-2.645-2.645A2.657 2.657 0 0 1 90 5.995a2.657 2.657 0 0 1 2.645 2.645A2.657 2.657 0 0 1 90 11.285zm5.645 3.065c.58-.549.936-1.355.936-2.355V5.35c0-.936-.323-1.742-.871-2.323-.581-.58-1.387-.87-2.355-.87H86.71c-.968 0-1.807.29-2.355.838-.58.58-.871 1.387-.871 2.355v6.613c0 1 .29 1.806.87 2.387.582.548 1.388.838 2.356.838h6.58c.968 0 1.774-.29 2.355-.838z" fill="#fff"/><mask id="c" style="mask-type:luminance" maskUnits="userSpaceOnUse" x="82" y="0" width="16" height="17"><path fill-rule="evenodd" clip-rule="evenodd" d="M96.71 1.995C95.87 1.124 94.677.672 93.323.672h-6.646C83.871.672 82 2.543 82 5.35v6.613c0 1.387.452 2.58 1.355 3.451.87.839 2.032 1.258 3.355 1.258h6.58c1.387 0 2.549-.451 3.387-1.258.871-.838 1.323-2.032 1.323-3.42V5.35c0-1.355-.452-2.516-1.29-3.355zM94.29 5.35a.935.935 0 1 0 0-1.871.935.935 0 0 0 0 1.87zM90 4.51a4.137 4.137 0 0 0-4.129 4.13A4.116 4.116 0 0 0 90 12.768c2.29 0 4.129-1.87 4.129-4.129 0-2.258-1.87-4.129-4.129-4.129zm0 6.774a2.657 2.657 0 0 1-2.645-2.645A2.657 2.657 0 0 1 90 5.995a2.657 2.657 0 0 1 2.645 2.645A2.657 2.657 0 0 1 90 11.285zm5.645 3.065c.58-.549.936-1.355.936-2.355V5.35c0-.936-.323-1.742-.871-2.323-.581-.58-1.387-.87-2.355-.87H86.71c-.968 0-1.807.29-2.355.838-.58.58-.871 1.387-.871 2.355v6.613c0 1 .29 1.806.87 2.387.582.548 1.388.838 2.356.838h6.58c.968 0 1.774-.29 2.355-.838z" fill="#fff"/></mask></svg>